<svg xmlns="http://www.w3.org/2000/svg" viewBox="0 0 150 80" fill="none">
  <g fill="white" opacity="0.8">
    <circle cx="10" cy="10" r="2.6"/><circle cx="32" cy="10" r="2.6"/><circle cx="54" cy="10" r="2.6"/><circle cx="76" cy="10" r="2.6"/><circle cx="98" cy="10" r="2.6"/><circle cx="120" cy="10" r="2.6"/>
    <circle cx="10" cy="30" r="2.6"/><circle cx="32" cy="30" r="2.6"/><circle cx="54" cy="30" r="2.6"/><circle cx="76" cy="30" r="2.6"/><circle cx="98" cy="30" r="2.6"/><circle cx="120" cy="30" r="2.6"/>
    <circle cx="10" cy="50" r="2.6"/><circle cx="32" cy="50" r="2.6"/><circle cx="54" cy="50" r="2.6"/><circle cx="76" cy="50" r="2.6"/><circle cx="98" cy="50" r="2.6"/><circle cx="120" cy="50" r="2.6"/>
    <circle cx="10" cy="70" r="2.6"/><circle cx="32" cy="70" r="2.6"/><circle cx="54" cy="70" r="2.6"/><circle cx="76" cy="70" r="2.6"/><circle cx="98" cy="70" r="2.6"/><circle cx="120" cy="70" r="2.6"/>
  </g>
</svg>
