<svg xmlns="http://www.w3.org/2000/svg" viewBox="0 0 520 560" fill="none">
  <defs>
    <clipPath id="koreaClip">
      <path d="M342 25C303 20 268 33 244 61C223 83 210 116 188 139C165 165 135 185 121 220C105 260 118 301 103 341C92 373 66 397 69 433C73 480 117 518 165 529C205 538 246 525 279 501C315 475 341 441 377 414C407 391 446 379 466 344C486 309 479 266 464 232C447 193 413 170 398 132C385 100 381 52 342 25Z"/>
    </clipPath>
  </defs>
  <g clip-path="url(#koreaClip)" opacity="0.22">
    <g stroke="white" stroke-width="1" fill="none">
      <path d="M40 40V540M80 40V540M120 40V540M160 40V540M200 40V540M240 40V540M280 40V540M320 40V540M360 40V540M400 40V540M440 40V540M480 40V540"/>
      <path d="M20 80H500M20 120H500M20 160H500M20 200H500M20 240H500M20 280H500M20 320H500M20 360H500M20 400H500M20 440H500M20 480H500M20 520H500"/>
    </g>
  </g>
  <path d="M342 25C303 20 268 33 244 61C223 83 210 116 188 139C165 165 135 185 121 220C105 260 118 301 103 341C92 373 66 397 69 433C73 480 117 518 165 529C205 538 246 525 279 501C315 475 341 441 377 414C407 391 446 379 466 344C486 309 479 266 464 232C447 193 413 170 398 132C385 100 381 52 342 25Z" fill="none" stroke="white" stroke-width="3" stroke-linejoin="round"/>
  <g opacity="0.55">
    <path d="M236 103C257 136 279 160 311 174C334 184 356 195 372 216M165 243C197 248 219 264 236 290C255 319 283 332 315 329M123 401C163 390 197 397 228 419C249 434 278 438 306 430M327 90C326 124 337 150 361 170" stroke="white" stroke-width="2" fill="none"/>
    <path d="M443 91c25-18 45 6 34 25-11 18-45 13-47-7-1-7 3-13 13-18Z" fill="none" stroke="white" stroke-width="3"/>
    <path d="M490 112c12-10 27 2 20 15-8 14-31 10-31-5 0-4 3-7 11-10Z" fill="none" stroke="white" stroke-width="2.5"/>
  </g>
  <path d="M292 263c-26 0-47 21-47 47 0 37 47 72 47 72s47-35 47-72c0-26-21-47-47-47Z" fill="white"/>
  <circle cx="292" cy="307" r="16" fill="#11824A"/>
</svg>
